<svg
        fill="none"
        stroke="currentColor"
        stroke-width="1.5"
        viewBox="0 0 24 24"
        xmlns="http://www.w3.org/2000/svg"
>
    <path
            d="M10.125 2.25A1.125 1.125 0 0111.25 3.375V8.25m-1.125 8.625v-1.5m0 1.5c-1.425 0-2.85-.375-4.07-.674m-2.13-0.573a11.924 11.924 0 01-1.014-.543m12.227-.416a11.924 11.924 0 011.014.543m-2.13 0c1.425 0 2.85.375 4.07.674M9.25 15v1.5m0-4.625h-1.5m1.5 4.625h1.5m-1.5-4.625c1.425 0 2.85-.375 4.07-.674m-2.13-0.573a11.924 11.924 0 01-1.014-.543m12.227-.416a11.924 11.924 0 011.014.543m-2.13 0c1.425 0 2.85.375 4.07.674m-4.07.674c-1.425 0-2.85-.375-4.07-.674m-2.13-0.573a11.924 11.924 0 01-1.014-.543m12.227-.416a11.924 11.924 0 011.014.543m-2.13 0c1.425 0 2.85.375 4.07.674m-4.07.674c-1.425 0-2.85-.375-4.07-.674"
            stroke-linecap="round"
            stroke-linejoin="round"
    />
</svg>